HIERARCHY
ROOT Hips
{
    OFFSET   0.000000   0.000000   0.000000
    CHANNELS 6 Xposition Yposition Zposition Zrotation Xrotation Yrotation
    JOINT Chest
    {
        OFFSET   0.000000   8.007240   0.000000
        CHANNELS 3 Zrotation Xrotation Yrotation
        JOINT Chest2
        {
            OFFSET   0.000000  22.077100   0.000000
            CHANNELS 3 Zrotation Xrotation Yrotation
            JOINT Neck
            {
                OFFSET   0.000000  23.254800   0.000000
                CHANNELS 3 Zrotation Xrotation Yrotation
                JOINT Head
                {
                    OFFSET   0.000000  14.370000   1.956600
                    CHANNELS 3 Zrotation Xrotation Yrotation
                    End Site
                    {
                        OFFSET   0.000000  19.566000   0.000000
                    }
                }
            }
            JOINT LeftCollar
            {
                OFFSET   3.911900  19.017000  -0.467064
                CHANNELS 3 Zrotation Xrotation Yrotation
                JOINT LeftShoulder
                {
                    OFFSET  10.383700   0.000000   0.000000
                    CHANNELS 3 Zrotation Xrotation Yrotation
                    JOINT LeftElbow
                    {
                        OFFSET  26.662100   0.001476   0.000517
                        CHANNELS 3 Zrotation Xrotation Yrotation
                        JOINT LeftWrist
                        {
                            OFFSET  28.869000  -0.000025  -0.000106
                            CHANNELS 3 Zrotation Xrotation Yrotation
                            JOINT LeftFinger0
                            {
                                OFFSET   2.044660  -2.323460   3.252850
                                CHANNELS 3 Zrotation Xrotation Yrotation
                                JOINT LeftFinger01
                                {
                                    OFFSET   3.088130   0.000000   0.000000
                                    CHANNELS 3 Zrotation Xrotation Yrotation
                                    JOINT LeftFinger02
                                    {
                                        OFFSET   2.639460   0.000000   0.000000
                                        CHANNELS 3 Zrotation Xrotation Yrotation
                                        End Site
                                        {
                                            OFFSET   2.582190   0.000000   0.000000
                                        }
                                    }
                                }
                            }
                            JOINT LeftFinger1
                            {
                                OFFSET   8.364480   0.000000   3.252850
                                CHANNELS 3 Zrotation Xrotation Yrotation
                                JOINT LeftFinger11
                                {
                                    OFFSET   4.646930   0.000000   0.000000
                                    CHANNELS 3 Zrotation Xrotation Yrotation
                                    JOINT LeftFinger12
                                    {
                                        OFFSET   2.323460   0.000000   0.000000
                                        CHANNELS 3 Zrotation Xrotation Yrotation
                                        End Site
                                        {
                                            OFFSET   2.273050   0.000000   0.000000
                                        }
                                    }
                                }
                            }
                            JOINT LeftFinger2
                            {
                                OFFSET   8.364490   0.000015   1.078090
                                CHANNELS 3 Zrotation Xrotation Yrotation
                                JOINT LeftFinger21
                                {
                                    OFFSET   5.111620   0.000000   0.000000
                                    CHANNELS 3 Zrotation Xrotation Yrotation
                                    JOINT LeftFinger22
                                    {
                                        OFFSET   2.788160   0.000016   0.000000
                                        CHANNELS 3 Zrotation Xrotation Yrotation
                                        End Site
                                        {
                                            OFFSET   2.727660   0.000000   0.000000
                                        }
                                    }
                                }
                            }
                            JOINT LeftFinger3
                            {
                                OFFSET   7.899780   0.000017  -1.078090
                                CHANNELS 3 Zrotation Xrotation Yrotation
                                JOINT LeftFinger31
                                {
                                    OFFSET   4.646930   0.000000   0.000000
                                    CHANNELS 3 Zrotation Xrotation Yrotation
                                    JOINT LeftFinger32
                                    {
                                        OFFSET   2.323470   0.000000   0.000000
                                        CHANNELS 3 Zrotation Xrotation Yrotation
                                        End Site
                                        {
                                            OFFSET   2.273050   0.000000   0.000000
                                        }
                                    }
                                }
                            }
                            JOINT LeftFinger4
                            {
                                OFFSET   7.435090   0.000000  -3.252850
                                CHANNELS 3 Zrotation Xrotation Yrotation
                                JOINT LeftFinger41
                                {
                                    OFFSET   3.717550   0.000000   0.000000
                                    CHANNELS 3 Zrotation Xrotation Yrotation
                                    JOINT LeftFinger42
                                    {
                                        OFFSET   1.858770   0.000000   0.000000
                                        CHANNELS 3 Zrotation Xrotation Yrotation
                                        End Site
                                        {
                                            OFFSET   1.818440   0.000000   0.000000
                                        }
                                    }
                                }
                            }
                        }
                    }
                }
            }
            JOINT RightCollar
            {
                OFFSET  -3.911900  19.017000  -0.467063
                CHANNELS 3 Zrotation Xrotation Yrotation
                JOINT RightShoulder
                {
                    OFFSET -10.383700   0.000019   0.000000
                    CHANNELS 3 Zrotation Xrotation Yrotation
                    JOINT RightElbow
                    {
                        OFFSET -26.662100   0.001175   0.000102
                        CHANNELS 3 Zrotation Xrotation Yrotation
                        JOINT RightWrist
                        {
                            OFFSET -28.869000   0.000016  -0.000079
                            CHANNELS 3 Zrotation Xrotation Yrotation
                            JOINT RightFinger0
                            {
                                OFFSET  -2.044660  -2.323490   3.252850
                                CHANNELS 3 Zrotation Xrotation Yrotation
                                JOINT RightFinger01
                                {
                                    OFFSET  -3.088140   0.000000   0.000000
                                    CHANNELS 3 Zrotation Xrotation Yrotation
                                    JOINT RightFinger02
                                    {
                                        OFFSET  -2.639460   0.000000   0.000000
                                        CHANNELS 3 Zrotation Xrotation Yrotation
                                        End Site
                                        {
                                            OFFSET  -2.582190   0.000000   0.000000
                                        }
                                    }
                                }
                            }
                            JOINT RightFinger1
                            {
                                OFFSET  -8.364480   0.000000   3.252850
                                CHANNELS 3 Zrotation Xrotation Yrotation
                                JOINT RightFinger11
                                {
                                    OFFSET  -4.646930   0.000000   0.000000
                                    CHANNELS 3 Zrotation Xrotation Yrotation
                                    JOINT RightFinger12
                                    {
                                        OFFSET  -2.323470   0.000000   0.000000
                                        CHANNELS 3 Zrotation Xrotation Yrotation
                                        End Site
                                        {
                                            OFFSET  -2.273050   0.000000   0.000000
                                        }
                                    }
                                }
                            }
                            JOINT RightFinger2
                            {
                                OFFSET  -8.364480   0.000000   1.078090
                                CHANNELS 3 Zrotation Xrotation Yrotation
                                JOINT RightFinger21
                                {
                                    OFFSET  -5.111620   0.000000   0.000000
                                    CHANNELS 3 Zrotation Xrotation Yrotation
                                    JOINT RightFinger22
                                    {
                                        OFFSET  -2.788160   0.000000   0.000000
                                        CHANNELS 3 Zrotation Xrotation Yrotation
                                        End Site
                                        {
                                            OFFSET  -2.727660   0.000000   0.000000
                                        }
                                    }
                                }
                            }
                            JOINT RightFinger3
                            {
                                OFFSET  -7.899780   0.000000  -1.078090
                                CHANNELS 3 Zrotation Xrotation Yrotation
                                JOINT RightFinger31
                                {
                                    OFFSET  -4.646930   0.000000   0.000000
                                    CHANNELS 3 Zrotation Xrotation Yrotation
                                    JOINT RightFinger32
                                    {
                                        OFFSET  -2.323470   0.000000   0.000000
                                        CHANNELS 3 Zrotation Xrotation Yrotation
                                        End Site
                                        {
                                            OFFSET  -2.273050   0.000000   0.000000
                                        }
                                    }
                                }
                            }
                            JOINT RightFinger4
                            {
                                OFFSET  -7.435090   0.000000  -3.252850
                                CHANNELS 3 Zrotation Xrotation Yrotation
                                JOINT RightFinger41
                                {
                                    OFFSET  -3.717550   0.000000   0.000000
                                    CHANNELS 3 Zrotation Xrotation Yrotation
                                    JOINT RightFinger42
                                    {
                                        OFFSET  -1.858770   0.000000   0.000000
                                        CHANNELS 3 Zrotation Xrotation Yrotation
                                        End Site
                                        {
                                            OFFSET  -1.818440   0.000000   0.000000
                                        }
                                    }
                                }
                            }
                        }
                    }
                }
            }
        }
    }
    JOINT LeftHip
    {
        OFFSET   9.783040   0.000000   0.000000
        CHANNELS 3 Zrotation Xrotation Yrotation
        JOINT LeftKnee
        {
            OFFSET   0.000032 -41.789100  -0.002222
            CHANNELS 3 Zrotation Xrotation Yrotation
            JOINT LeftAnkle
            {
                OFFSET   0.000087 -41.133200  -0.000135
                CHANNELS 3 Zrotation Xrotation Yrotation
                JOINT LeftToe
                {
                    OFFSET   0.000000  -6.358960  14.674500
                    CHANNELS 3 Zrotation Xrotation Yrotation
                    End Site
                    {
                        OFFSET   0.000000   0.000000   3.913200
                    }
                }
            }
        }
    }
    JOINT RightHip
    {
        OFFSET  -9.783040   0.000000   0.000000
        CHANNELS 3 Zrotation Xrotation Yrotation
        JOINT RightKnee
        {
            OFFSET   0.000047 -41.789100  -0.000896
            CHANNELS 3 Zrotation Xrotation Yrotation
            JOINT RightAnkle
            {
                OFFSET  -0.000117 -41.133300  -0.000248
                CHANNELS 3 Zrotation Xrotation Yrotation
                JOINT RightToe
                {
                    OFFSET   0.000000  -6.358970  14.674500
                    CHANNELS 3 Zrotation Xrotation Yrotation
                    End Site
                    {
                        OFFSET   0.000000   0.000000   3.913200
                    }
                }
            }
        }
    }
}
MOTION
Frames: 5
Frame Time:   0.016667
  0.356275  89.941400   0.928538  -1.023000  -5.549930  -1.183810   0.268498   3.843390  -0.229319   0.554327   7.685600  -0.478355   3.804990   1.705850  -0.112711   6.266300   3.412660   2.122100  -3.170080   0.865878   6.485680 -76.944200  -0.898850 -25.506500   7.255740 -21.371900 -108.774000  44.563800  29.787400  -2.954780  59.094100  54.426100 -108.337000 -29.180200   0.006911   0.003993  -9.590140   0.002579  -0.000837 -41.947000  -1.249750   1.253820 -34.321600   0.005079   0.164752 -24.601100  -0.047942   0.113925 -30.179300  -4.167340   7.472750 -39.998800  -0.071310  -0.023859 -26.507500  -0.034915  -0.032039 -72.891400  -8.302100   2.528160 -73.060500  -0.001866   0.000100 -54.795400  -0.001802   0.003779 -88.396400 -10.471800   0.304758 -110.000000   0.000000  -0.004002 -80.000000   0.000684  -0.001870   7.805280   2.653150   5.892650  72.011000  -4.330340  25.728000  -6.074240 -28.406500 104.532000 -66.280000  50.075100  32.012900 -28.197500  32.808800  66.576400  53.611200   0.000388  -0.000470  29.045100   0.003057   0.001323  45.835700  -2.617780  -2.757430  37.552900  -0.005646   0.018101  27.232600   0.000579   0.016657  28.838600  -4.295350  -7.891630  31.021100  -0.020954   0.018586  20.660100  -0.010071   0.015085  72.852500  -8.607960  -2.650000  73.050600   0.000062   0.000464  54.787900   0.000274   0.000596  84.220000  -9.661530  -0.973011 109.994000  -0.001869  -0.005331  80.000000   0.002653   0.001134  -0.181551   8.002640   2.812750   0.002985   0.048963  14.351800  -4.302670  -4.533630   5.748850  -0.000000   0.000000   0.000000   2.909760   7.280060 -10.397500   0.280573   1.698700  -8.018090 -10.376900  -0.520527  -0.006182  -0.000000   0.000000   0.000000
  0.345839  89.941400   0.939287  -1.018630  -5.526720  -1.159880   0.261051   3.835030  -0.215218   0.538388   7.668990  -0.449508   3.805090   1.706110  -0.112241   6.265620   3.413820   2.098890  -3.167580   0.869228   6.470640 -76.910300  -0.979559 -25.465900   7.395150 -21.261900 -108.725000  44.214700  30.371100  -3.174930  59.028000  54.311100 -108.283000 -28.991900   0.006927   0.004028  -9.495960   0.002540  -0.000769 -32.738600   0.376487  -0.644876 -26.790500   0.016377   0.124279 -18.568400  -0.013057   0.084640 -26.175200  -4.417490   9.302200 -30.476000  -0.040435   0.021711 -20.297000  -0.026916   0.003622 -72.302700  -9.791270   3.118670 -72.559500  -0.001774  -0.000000 -54.419700  -0.002095   0.003736 -87.732400 -11.059200   0.450514 -110.000000   0.000000  -0.004040 -80.000000   0.000774  -0.001787   7.812870   2.659810   5.877190  72.034500  -4.412170  25.645100  -6.069390 -28.271300 104.534000 -66.570000  50.030100  32.556800 -28.427900  32.899400  66.865400  53.274400   0.000292  -0.000391  28.820800   0.003078   0.001415  40.677200  -2.720530  -3.266370  33.346000   0.004658  -0.009694  23.603000   0.002806  -0.004684  25.447500  -4.291080  -8.955600  25.026800  -0.026290   0.012436  16.667900  -0.014967   0.012343  72.085400  -9.446300  -3.041220  72.333900   0.000122   0.000335  54.250400   0.000249   0.000571  83.557200 -10.037600  -1.132460 109.994000  -0.001882  -0.005379  80.000000   0.002738   0.001087  -0.175668   7.755030   2.812630   0.014434   0.278229  14.342200  -4.313900  -4.536590   5.735250  -0.000000   0.000000   0.000000   2.912990   7.272300 -10.396200   0.293187   1.685180  -8.041360 -10.385900  -0.523915  -0.005398   0.000000   0.000000   0.000000
  0.336151  89.941400   0.948316  -1.013300  -5.505580  -1.134290   0.253306   3.827710  -0.203003   0.521988   7.654460  -0.424435   3.804340   1.710110  -0.111769   6.263680   3.422170   2.097880  -3.170850   0.875104   6.457270 -76.860300  -1.068300 -25.444500   7.551240 -21.126000 -108.686000  43.489500  31.046000  -3.118310  59.029400  54.314100 -108.284000 -29.060400   0.006950   0.003931  -9.530220   0.002498  -0.000695 -22.915700   0.793541  -1.957320 -18.768200   0.016031   0.068305 -12.938600   0.003212   0.047699 -20.750200  -3.898150  10.013400 -22.073000   0.004572   0.043809 -14.708100  -0.002226   0.027158 -71.882800 -10.012300   3.304620 -72.160200  -0.001679  -0.000121 -54.120200  -0.002400   0.003704 -87.276900 -11.058100   0.536987 -110.000000   0.000000  -0.004087 -80.000000   0.000851  -0.001699   7.816570   2.673100   5.867090  72.084200  -4.511030  25.572700  -6.107210 -28.132900 104.492000 -66.821800  50.109300  33.215300 -28.396600  32.544500  66.750100  53.283800   0.000202  -0.000205  28.827100   0.003092   0.001497  33.818800  -2.236420  -3.168190  27.718900   0.025009  -0.035081  19.418100   0.011220  -0.026731  19.472600  -3.745780 -10.461800  19.027800  -0.023545   0.003485  12.672500  -0.014211   0.006069  71.582000 -10.562100  -3.486360  71.922200   0.000162   0.000321  53.941600   0.000211   0.000538  83.112100 -11.034900  -1.326800 109.994000  -0.001902  -0.005431  80.000000   0.002829   0.001037  -0.171723   7.781400   2.812550   0.012007   0.248951  14.331400  -4.324280  -4.544870   5.723340  -0.000000   0.000000  -0.000000   2.914270   7.264350 -10.405600   0.307803   1.677600  -8.052060 -10.396100  -0.531477  -0.008346  -0.000000   0.000000   0.000000
  0.327192  89.941400   0.956364  -1.007680  -5.486930  -1.108020   0.246673   3.820770  -0.193116   0.507980   7.640670  -0.404113   3.799120   1.717560  -0.111293   6.256930   3.437050   2.097760  -3.177030   0.881528   6.449590 -76.800800  -1.151080 -25.437900   7.695620 -20.979400 -108.640000  42.641200  31.755700  -2.992210  59.039200  54.334800 -108.292000 -29.237800   0.006974   0.003833  -9.618900   0.002455  -0.000622 -14.010000   0.852497  -2.972580 -11.486400   0.014497   0.023074  -8.040480   0.009250   0.017348 -15.338200  -2.959470  10.147000 -15.021600   0.034402   0.052374 -10.004400   0.015926   0.038854 -71.539300 -10.043800   3.331210 -71.836100  -0.001582  -0.000251 -53.877100  -0.002703   0.003675 -86.916100 -11.051100   0.590970 -110.000000   0.000000  -0.004129 -80.000000   0.000929  -0.001608   7.817100   2.688290   5.862980  72.137000  -4.604550  25.517700  -6.169730 -28.016600 104.433000 -66.834300  50.298900  33.730400 -28.268300  32.065300  66.463000  53.349600   0.000114   0.000000  28.870800   0.003106   0.001584  26.606000  -1.444680  -2.808050  21.791800   0.039229  -0.049832  15.207900   0.017724  -0.040101  12.870800  -2.765000 -12.043300  13.149900  -0.018284  -0.002571   8.757840  -0.012058  -0.000386  71.270000 -11.739600  -3.936760  71.672400   0.000187   0.000307  53.754200   0.000175   0.000501  82.791400 -12.245500  -1.529230 109.994000  -0.001921  -0.005483  80.000000   0.002923   0.000987  -0.167777   7.807770   2.812470   0.009571   0.219671  14.319800  -4.335770  -4.559260   5.711880   0.000000   0.000000  -0.000000   2.915770   7.257500 -10.420700   0.321822   1.671650  -8.057460 -10.406700  -0.539000  -0.015958   0.000000   0.000000   0.000000
  0.319570  89.941400   0.964479  -1.002420  -5.471810  -1.081900   0.243409   3.812030  -0.188085   0.501058   7.623240  -0.393754   3.785200   1.726530  -0.110811   6.234670   3.455350   2.125470  -3.185570   0.892458   6.459310 -76.748300  -1.223000 -25.440400   7.784320 -20.827300 -108.591000  41.794200  32.426700  -2.841030  59.081900  54.412300 -108.327000 -29.524100   0.007001   0.004041  -9.762050   0.002413  -0.000557  -8.211340   0.625198  -3.472910  -6.738610   0.010998   0.013400  -4.728580   0.007567   0.009778 -11.006200  -1.851580   8.978050 -10.567900   0.022684   0.033971  -7.038250   0.010320   0.025394 -71.352000  -8.744210   2.919640 -71.577000  -0.001487  -0.000375 -53.682700  -0.002991   0.003639 -86.630800 -10.454400   0.608843 -110.000000  -0.000000  -0.004149 -80.000000   0.001024  -0.001517   7.812760   2.708510   5.863440  72.179300  -4.682710  25.498600  -6.227840 -27.940900 104.386000 -66.371400  50.590500  33.909800 -28.071200  31.717400  66.161300  53.614700   0.000026   0.000151  29.047400   0.003128   0.001692  20.183700  -0.761461  -1.997510  16.519400   0.032037  -0.033940  11.521200   0.016453  -0.027645   7.408840  -1.748130 -13.433900   7.411420  -0.012153  -0.002733   4.954650  -0.008023  -0.003882  71.083700 -12.839600  -4.349500  71.549400   0.000197  -0.000463  53.661900   0.000157   0.000454  82.593100 -13.408100  -1.719020 109.994000  -0.001935  -0.005534  80.000000   0.003022   0.000940  -0.166339   7.778600   2.812330   0.011208   0.261764  14.306300  -4.352730  -4.586670   5.700640  -0.000000   0.000000   0.000000   2.918660   7.253850 -10.432400   0.332418   1.662150  -8.059220 -10.417500  -0.542335  -0.029168   0.000000   0.000000  -0.000000
